<svg width="36" height="36" viewBox="0 0 36 36" fill="none" xmlns="http://www.w3.org/2000/svg">
<circle cx="30" cy="7" r="5" fill="#469AF2"/>
<path d="M36 18C36 21.5601 34.9443 25.0402 32.9665 28.0003C30.9886 30.9603 28.1774 33.2675 24.8883 34.6298C21.5992 35.9922 17.98 36.3487 14.4884 35.6541C10.9967 34.9596 7.78942 33.2453 5.27208 30.7279C2.75473 28.2106 1.0404 25.0033 0.345865 21.5116C-0.348669 18.02 0.00779105 14.4008 1.37017 11.1117C2.73255 7.82263 5.03965 5.01141 7.99974 3.03355C10.9598 1.05568 14.4399 -4.24533e-08 18 0L18 10.98C16.6116 10.98 15.2543 11.3917 14.0999 12.1631C12.9455 12.9345 12.0457 14.0308 11.5144 15.3136C10.983 16.5963 10.844 18.0078 11.1149 19.3695C11.3858 20.7313 12.0543 21.9821 13.0361 22.9639C14.0179 23.9457 15.2687 24.6142 16.6305 24.8851C17.9922 25.156 19.4037 25.017 20.6864 24.4856C21.9692 23.9543 23.0655 23.0545 23.8369 21.9001C24.6083 20.7457 25.02 19.3884 25.02 18H36Z" fill="url(#paint0_radial_58_25)"/>
<defs>
<radialGradient id="paint0_radial_58_25" cx="0" cy="0" r="1" gradientUnits="userSpaceOnUse" gradientTransform="translate(18 17) rotate(90) scale(19)">
<stop offset="0.423437" stop-color="#306AA8"/>
<stop offset="1" stop-color="#469AF2"/>
</radialGradient>
</defs>
</svg>
