<svg width="100" height="100" viewBox="0 0 144 36" fill="none" xmlns="http://www.w3.org/2000/svg">
<path d="M44.2 30V7.95H47.23L50.23 19.44L50.5 20.46H50.68V7.95H53.65V30H50.92L47.62 18.51L47.35 17.49H47.17V30H44.2ZM59.3209 30.21C58.1109 30.21 57.1609 29.805 56.4709 28.995C55.7809 28.175 55.4359 27.14 55.4359 25.89V17.67C55.4359 16.42 55.7809 15.39 56.4709 14.58C57.1609 13.76 58.1109 13.35 59.3209 13.35C60.5209 13.35 61.4659 13.76 62.1559 14.58C62.8559 15.39 63.2059 16.42 63.2059 17.67V25.89C63.2059 27.14 62.8559 28.175 62.1559 28.995C61.4659 29.805 60.5209 30.21 59.3209 30.21ZM59.3209 27.57C59.7109 27.57 59.9809 27.415 60.1309 27.105C60.2809 26.785 60.3559 26.38 60.3559 25.89V17.67C60.3559 17.17 60.2809 16.765 60.1309 16.455C59.9809 16.145 59.7109 15.99 59.3209 15.99C58.9309 15.99 58.6609 16.145 58.5109 16.455C58.3609 16.765 58.2859 17.17 58.2859 17.67V25.89C58.2859 26.39 58.3609 26.795 58.5109 27.105C58.6609 27.415 58.9309 27.57 59.3209 27.57ZM66.7408 30.24C66.2408 30.24 65.8158 30.085 65.4658 29.775C65.1158 29.465 64.8508 29.065 64.6708 28.575C64.4908 28.075 64.4008 27.56 64.4008 27.03V16.56C64.4008 16.03 64.4858 15.52 64.6558 15.03C64.8358 14.54 65.1008 14.14 65.4508 13.83C65.8008 13.51 66.2308 13.35 66.7408 13.35C67.1208 13.35 67.5208 13.48 67.9408 13.74C68.3608 14 68.7608 14.31 69.1408 14.67V7.95H72.1708V30H69.1408V28.92C68.7408 29.27 68.3458 29.58 67.9558 29.85C67.5658 30.11 67.1608 30.24 66.7408 30.24ZM68.1808 27.39C68.4108 27.39 68.6258 27.295 68.8258 27.105C69.0358 26.915 69.1408 26.68 69.1408 26.4V17.19C69.1408 16.95 69.0358 16.725 68.8258 16.515C68.6258 16.305 68.4108 16.2 68.1808 16.2C67.9608 16.2 67.7808 16.295 67.6408 16.485C67.5008 16.665 67.4308 16.9 67.4308 17.19V26.4C67.4308 26.68 67.5008 26.915 67.6408 27.105C67.7808 27.295 67.9608 27.39 68.1808 27.39ZM77.9102 30.24C76.7002 30.24 75.7452 29.825 75.0452 28.995C74.3552 28.155 74.0102 27.13 74.0102 25.92V17.67C74.0102 16.39 74.3552 15.35 75.0452 14.55C75.7352 13.75 76.7002 13.35 77.9402 13.35C78.7502 13.35 79.4452 13.535 80.0252 13.905C80.6152 14.275 81.0652 14.78 81.3752 15.42C81.6852 16.05 81.8402 16.77 81.8402 17.58V22.35H76.8302V25.92C76.8302 26.33 76.9202 26.71 77.1002 27.06C77.2902 27.4 77.5702 27.57 77.9402 27.57C78.3302 27.57 78.6052 27.41 78.7652 27.09C78.9352 26.77 79.0202 26.38 79.0202 25.92V24.12H81.8402V26.01C81.8402 27.28 81.4952 28.305 80.8052 29.085C80.1252 29.855 79.1602 30.24 77.9102 30.24ZM76.8302 19.98H79.0202V17.67C79.0202 17.22 78.9402 16.83 78.7802 16.5C78.6302 16.16 78.3502 15.99 77.9402 15.99C77.5602 15.99 77.2802 16.165 77.1002 16.515C76.9202 16.855 76.8302 17.24 76.8302 17.67V19.98ZM92.4325 30.24C91.5125 30.24 90.7275 30.035 90.0775 29.625C89.4375 29.205 88.9475 28.635 88.6075 27.915C88.2775 27.195 88.1125 26.38 88.1125 25.47V12.48C88.1125 11.58 88.2825 10.77 88.6225 10.05C88.9725 9.33 89.4725 8.76 90.1225 8.34C90.7725 7.92 91.5425 7.71 92.4325 7.71C93.1025 7.71 93.7025 7.835 94.2325 8.085C94.7625 8.335 95.2125 8.68 95.5825 9.12C95.9625 9.55 96.2525 10.055 96.4525 10.635C96.6525 11.205 96.7525 11.82 96.7525 12.48V15.51H93.7225V12.48C93.7225 12.02 93.6275 11.635 93.4375 11.325C93.2475 11.015 92.9325 10.86 92.4925 10.86C92.0925 10.86 91.8025 11.02 91.6225 11.34C91.4425 11.66 91.3525 12.04 91.3525 12.48V25.47C91.3525 25.91 91.4475 26.29 91.6375 26.61C91.8375 26.93 92.1225 27.09 92.4925 27.09C92.9425 27.09 93.2575 26.935 93.4375 26.625C93.6275 26.315 93.7225 25.93 93.7225 25.47V22.44H96.7525V25.47C96.7525 26.37 96.5775 27.18 96.2275 27.9C95.8775 28.62 95.3775 29.19 94.7275 29.61C94.0875 30.03 93.3225 30.24 92.4325 30.24ZM98.7145 30V7.95H101.744V30H98.7145ZM105.678 30.24C105.178 30.24 104.758 30.08 104.418 29.76C104.078 29.44 103.823 29.035 103.653 28.545C103.483 28.045 103.398 27.54 103.398 27.03V13.59H106.428V26.43C106.428 26.74 106.483 26.965 106.593 27.105C106.713 27.235 106.898 27.3 107.148 27.3C107.368 27.3 107.553 27.225 107.703 27.075C107.863 26.915 108.008 26.73 108.138 26.52V13.59H111.168V30H108.138V28.62C107.778 28.96 107.373 29.315 106.923 29.685C106.473 30.055 106.058 30.24 105.678 30.24ZM116.469 30.24C115.759 30.24 115.139 30.12 114.609 29.88C114.079 29.64 113.639 29.3 113.289 28.86C112.939 28.41 112.674 27.88 112.494 27.27C112.324 26.66 112.239 25.98 112.239 25.23H115.059C115.059 25.9 115.164 26.485 115.374 26.985C115.594 27.475 115.959 27.72 116.469 27.72C116.909 27.72 117.194 27.535 117.324 27.165C117.454 26.795 117.519 26.37 117.519 25.89C117.519 25.33 117.299 24.76 116.859 24.18C116.429 23.59 115.979 23.065 115.509 22.605C114.699 21.805 114.024 21.015 113.484 20.235C112.954 19.455 112.689 18.54 112.689 17.49C112.689 16.25 113.014 15.25 113.664 14.49C114.314 13.73 115.239 13.35 116.439 13.35C117.159 13.35 117.764 13.445 118.254 13.635C118.754 13.825 119.154 14.11 119.454 14.49C119.754 14.87 119.969 15.335 120.099 15.885C120.239 16.435 120.309 17.07 120.309 17.79H117.489C117.489 17.27 117.434 16.82 117.324 16.44C117.214 16.06 116.939 15.87 116.499 15.87C116.139 15.87 115.884 16.025 115.734 16.335C115.584 16.635 115.509 17.02 115.509 17.49C115.509 18.04 115.639 18.53 115.899 18.96C116.169 19.38 116.614 19.895 117.234 20.505C118.014 21.265 118.724 22.075 119.364 22.935C120.014 23.795 120.339 24.73 120.339 25.74C120.339 26.4 120.249 27.005 120.069 27.555C119.899 28.105 119.644 28.58 119.304 28.98C118.974 29.38 118.569 29.69 118.089 29.91C117.619 30.13 117.079 30.24 116.469 30.24ZM125.943 30.24C124.993 30.24 124.268 30.03 123.768 29.61C123.268 29.19 122.923 28.59 122.733 27.81C122.553 27.03 122.463 26.1 122.463 25.02V16.32H120.933V13.59H122.463V9.54H125.493V13.59H127.578V16.32H125.493V25.455C125.493 26.095 125.588 26.57 125.778 26.88C125.968 27.18 126.278 27.33 126.708 27.33C126.898 27.33 127.063 27.315 127.203 27.285C127.353 27.255 127.473 27.22 127.563 27.18V29.955C127.363 30.035 127.143 30.1 126.903 30.15C126.673 30.21 126.353 30.24 125.943 30.24ZM132.227 30.24C131.017 30.24 130.062 29.825 129.362 28.995C128.672 28.155 128.327 27.13 128.327 25.92V17.67C128.327 16.39 128.672 15.35 129.362 14.55C130.052 13.75 131.017 13.35 132.257 13.35C133.067 13.35 133.762 13.535 134.342 13.905C134.932 14.275 135.382 14.78 135.692 15.42C136.002 16.05 136.157 16.77 136.157 17.58V22.35H131.147V25.92C131.147 26.33 131.237 26.71 131.417 27.06C131.607 27.4 131.887 27.57 132.257 27.57C132.647 27.57 132.922 27.41 133.082 27.09C133.252 26.77 133.337 26.38 133.337 25.92V24.12H136.157V26.01C136.157 27.28 135.812 28.305 135.122 29.085C134.442 29.855 133.477 30.24 132.227 30.24ZM131.147 19.98H133.337V17.67C133.337 17.22 133.257 16.83 133.097 16.5C132.947 16.16 132.667 15.99 132.257 15.99C131.877 15.99 131.597 16.165 131.417 16.515C131.237 16.855 131.147 17.24 131.147 17.67V19.98ZM137.441 30V13.59H140.471V15.42C140.531 15.02 140.716 14.665 141.026 14.355C141.336 14.045 141.711 13.8 142.151 13.62C142.601 13.44 143.051 13.35 143.501 13.35V16.71C143.371 16.66 143.231 16.63 143.081 16.62C142.941 16.6 142.801 16.59 142.661 16.59C142.001 16.59 141.471 16.77 141.071 17.13C140.671 17.49 140.471 17.98 140.471 18.6V30H137.441Z" fill="white"/>
<circle cx="30" cy="7" r="5" fill="#469AF2"/>
<path d="M36 18C36 21.5601 34.9443 25.0402 32.9665 28.0003C30.9886 30.9603 28.1774 33.2675 24.8883 34.6298C21.5992 35.9922 17.98 36.3487 14.4884 35.6541C10.9967 34.9596 7.78942 33.2453 5.27208 30.7279C2.75473 28.2106 1.0404 25.0033 0.345865 21.5116C-0.348669 18.02 0.00779105 14.4008 1.37017 11.1117C2.73255 7.82263 5.03965 5.01141 7.99974 3.03355C10.9598 1.05568 14.4399 -4.24533e-08 18 0L18 10.98C16.6116 10.98 15.2543 11.3917 14.0999 12.1631C12.9455 12.9345 12.0457 14.0308 11.5144 15.3136C10.983 16.5963 10.844 18.0078 11.1149 19.3695C11.3858 20.7313 12.0543 21.9821 13.0361 22.9639C14.0179 23.9457 15.2687 24.6142 16.6305 24.8851C17.9922 25.156 19.4037 25.017 20.6864 24.4856C21.9692 23.9543 23.0655 23.0545 23.8369 21.9001C24.6083 20.7457 25.02 19.3884 25.02 18H36Z" fill="url(#paint0_radial_58_26)"/>
<defs>
<radialGradient id="paint0_radial_58_26" cx="0" cy="0" r="1" gradientUnits="userSpaceOnUse" gradientTransform="translate(18 17) rotate(90) scale(19)">
<stop offset="0.423437" stop-color="#306AA8"/>
<stop offset="1" stop-color="#469AF2"/>
</radialGradient>
</defs>
</svg>
